# xmcd CD database file
# Copyright (C) 1995-1998 Ti Kan
#
# Track frame offsets:
#	150
#	19185
#	30647
#	45050
#	61257
#	73797
#	93417
#	108302
#	121047
#	132687
#	153367
#	166885
#	179782
#	197507
#	210670
#	223015
#	240122
#	251397
#	262457
#	273630
#
# Disc length: 3833 seconds
#
# Revision: 1
# Processed by: cddbd v1.4PL0 Copyright (c) Steve Scherf et al.
# Submitted via: CDex 1.30Release
#
DISCID=1e0ef714
DTITLE=DOLLY PARTON - Best of Dolly Parton
DYEAR=1998
DGENRE=Country
TTITLE0=WHITE LIMOZEEN
TTITLE1=TAKE ME BACK TO THE COUNTRY
TTITLE2=COULD I HAVE YOUR AUTOGRAPH
TTITLE3=JOLENE
TTITLE4=APPLE JACK
TTITLE5=THE RIVER UNBROKEN
TTITLE6=COUNTRY ROAD
TTITLE7=TIME FOR ME TO FLY
TTITLE8=NIGHT TRAIN TO MEMPHIS
TTITLE9=HE'S ALIVE
TTITLE10=THE SEEKER
TTITLE11=RUNAWAY FEELIN
TTITLE12=RED HOT SCREAMING LOVE
TTITLE13=NO GOOG WAY OF SAYING GOOD BYE
TTITLE14=GO TELL IT ON THE MOUNTAIN
TTITLE15=YELLOW ROSES
TTITLE16=IN THE PINES
TTITLE17=HOLD FAST TO THE RIGHT
TTITLE18=WHY'D YOU COME IN HERE LOOKIN' LIKE THAT
TTITLE19=SOMETHING SPECIAL
EXTD=YEAR: 1998 ID3G:   2
EXTT0=
EXTT1=
EXTT2=
EXTT3=
EXTT4=
EXTT5=
EXTT6=
EXTT7=
EXTT8=
EXTT9=
EXTT10=
EXTT11=
EXTT12=
EXTT13=
EXTT14=
EXTT15=
EXTT16=
EXTT17=
EXTT18=
EXTT19=
PLAYORDER=
